<?xml version="1.0" encoding="UTF-8" standalone="no"?>
<!DOCTYPE svg PUBLIC "-//W3C//DTD SVG 1.1//EN"
 "http://www.w3.org/Graphics/SVG/1.1/DTD/svg11.dtd">
<!-- Generated by graphviz version 2.43.0 (0)
 -->
<!-- Title: wordcount01 Pages: 1 -->
<svg width="100%" height="100%" xmlns="http://www.w3.org/2000/svg" xmlns:xlink="http://www.w3.org/1999/xlink">
<script type="text/ecmascript"><![CDATA[
/**
 *  SVGPan library 1.2.2
 * ======================
 *
 * Given an unique existing element with id "viewport" (or when missing, the
 * first g-element), including the library into any SVG adds the following
 * capabilities:
 *
 *  - Mouse panning
 *  - Mouse zooming (using the wheel)
 *  - Object dragging
 *
 * You can configure the behaviour of the pan/zoom/drag with the variables
 * listed in the CONFIGURATION section of this file.
 *
 * Known issues:
 *
 *  - Zooming (while panning) on Safari has still some issues
 *
 * Releases:
 *
 * 1.2.2, Tue Aug 30 17:21:56 CEST 2011, Andrea Leofreddi
 *	- Fixed viewBox on root tag (#7)
 *	- Improved zoom speed (#2)
 *
 * 1.2.1, Mon Jul  4 00:33:18 CEST 2011, Andrea Leofreddi
 *	- Fixed a regression with mouse wheel (now working on Firefox 5)
 *	- Working with viewBox attribute (#4)
 *	- Added "use strict;" and fixed resulting warnings (#5)
 *	- Added configuration variables, dragging is disabled by default (#3)
 *
 * 1.2, Sat Mar 20 08:42:50 GMT 2010, Zeng Xiaohui
 *	Fixed a bug with browser mouse handler interaction
 *
 * 1.1, Wed Feb  3 17:39:33 GMT 2010, Zeng Xiaohui
 *	Updated the zoom code to support the mouse wheel on Safari/Chrome
 *
 * 1.0, Andrea Leofreddi
 *	First release
 *
 * This code is licensed under the following BSD license:
 *
 * Copyright 2009-2017 Andrea Leofreddi <a.leofreddi@vleo.net>. All rights reserved.
 *
 * Redistribution and use in source and binary forms, with or without modification, are
 * permitted provided that the following conditions are met:
 *
 *    1. Redistributions of source code must retain the above copyright
 *       notice, this list of conditions and the following disclaimer.
 *    2. Redistributions in binary form must reproduce the above copyright
 *       notice, this list of conditions and the following disclaimer in the
 *       documentation and/or other materials provided with the distribution.
 *    3. Neither the name of the copyright holder nor the names of its
 *       contributors may be used to endorse or promote products derived from
 *       this software without specific prior written permission.
 *
 * THIS SOFTWARE IS PROVIDED BY COPYRIGHT HOLDERS AND CONTRIBUTORS ''AS IS'' AND ANY EXPRESS
 * OR IMPLIED WARRANTIES, INCLUDING, BUT NOT LIMITED TO, THE IMPLIED WARRANTIES OF MERCHANTABILITY
 * AND FITNESS FOR A PARTICULAR PURPOSE ARE DISCLAIMED. IN NO EVENT SHALL COPYRIGHT HOLDERS OR
 * CONTRIBUTORS BE LIABLE FOR ANY DIRECT, INDIRECT, INCIDENTAL, SPECIAL, EXEMPLARY, OR
 * CONSEQUENTIAL DAMAGES (INCLUDING, BUT NOT LIMITED TO, PROCUREMENT OF SUBSTITUTE GOODS OR
 * SERVICES; LOSS OF USE, DATA, OR PROFITS; OR BUSINESS INTERRUPTION) HOWEVER CAUSED AND ON
 * ANY THEORY OF LIABILITY, WHETHER IN CONTRACT, STRICT LIABILITY, OR TORT (INCLUDING
 * NEGLIGENCE OR OTHERWISE) ARISING IN ANY WAY OUT OF THE USE OF THIS SOFTWARE, EVEN IF
 * ADVISED OF THE POSSIBILITY OF SUCH DAMAGE.
 *
 * The views and conclusions contained in the software and documentation are those of the
 * authors and should not be interpreted as representing official policies, either expressed
 * or implied, of Andrea Leofreddi.
 */

"use strict";

/// CONFIGURATION
/// ====>

var enablePan = 1; // 1 or 0: enable or disable panning (default enabled)
var enableZoom = 1; // 1 or 0: enable or disable zooming (default enabled)
var enableDrag = 0; // 1 or 0: enable or disable dragging (default disabled)
var zoomScale = 0.2; // Zoom sensitivity

/// <====
/// END OF CONFIGURATION

var root = document.documentElement;

var state = 'none', svgRoot = null, stateTarget, stateOrigin, stateTf;

setupHandlers(root);

/**
 * Register handlers
 */
function setupHandlers(root){
	setAttributes(root, {
		"onmouseup" : "handleMouseUp(evt)",
		"onmousedown" : "handleMouseDown(evt)",
		"onmousemove" : "handleMouseMove(evt)",
		//"onmouseout" : "handleMouseUp(evt)", // Decomment this to stop the pan functionality when dragging out of the SVG element
	});

	if(navigator.userAgent.toLowerCase().indexOf('webkit') >= 0)
		window.addEventListener('mousewheel', handleMouseWheel, false); // Chrome/Safari
	else
		window.addEventListener('DOMMouseScroll', handleMouseWheel, false); // Others
}

/**
 * Retrieves the root element for SVG manipulation. The element is then cached into the svgRoot global variable.
 */
function getRoot(root) {
	if(svgRoot == null) {
		var r = root.getElementById("viewport") ? root.getElementById("viewport") : root.documentElement, t = r;

		while(t != root) {
			if(t.getAttribute("viewBox")) {
				setCTM(r, t.getCTM());

				t.removeAttribute("viewBox");
			}

			t = t.parentNode;
		}

		svgRoot = r;
	}

	return svgRoot;
}

/**
 * Instance an SVGPoint object with given event coordinates.
 */
function getEventPoint(evt) {
	var p = root.createSVGPoint();

	p.x = evt.clientX;
	p.y = evt.clientY;

	return p;
}

/**
 * Sets the current transform matrix of an element.
 */
function setCTM(element, matrix) {
	var s = "matrix(" + matrix.a + "," + matrix.b + "," + matrix.c + "," + matrix.d + "," + matrix.e + "," + matrix.f + ")";

	element.setAttribute("transform", s);
}

/**
 * Dumps a matrix to a string (useful for debug).
 */
function dumpMatrix(matrix) {
	var s = "[ " + matrix.a + ", " + matrix.c + ", " + matrix.e + "\n  " + matrix.b + ", " + matrix.d + ", " + matrix.f + "\n  0, 0, 1 ]";

	return s;
}

/**
 * Sets attributes of an element.
 */
function setAttributes(element, attributes){
	for (var i in attributes)
		element.setAttributeNS(null, i, attributes[i]);
}

/**
 * Handle mouse wheel event.
 */
function handleMouseWheel(evt) {
	if(!enableZoom)
		return;

	if(evt.preventDefault)
		evt.preventDefault();

	evt.returnValue = false;

	var svgDoc = evt.target.ownerDocument;

	var delta;

	if(evt.wheelDelta)
		delta = evt.wheelDelta / 360; // Chrome/Safari
	else
		delta = evt.detail / -9; // Mozilla

	var z = Math.pow(1 + zoomScale, delta);

	var g = getRoot(svgDoc);
	
	var p = getEventPoint(evt);

	p = p.matrixTransform(g.getCTM().inverse());

	// Compute new scale matrix in current mouse position
	var k = root.createSVGMatrix().translate(p.x, p.y).scale(z).translate(-p.x, -p.y);

        setCTM(g, g.getCTM().multiply(k));

	if(typeof(stateTf) == "undefined")
		stateTf = g.getCTM().inverse();

	stateTf = stateTf.multiply(k.inverse());
}

/**
 * Handle mouse move event.
 */
function handleMouseMove(evt) {
	if(evt.preventDefault)
		evt.preventDefault();

	evt.returnValue = false;

	var svgDoc = evt.target.ownerDocument;

	var g = getRoot(svgDoc);

	if(state == 'pan' && enablePan) {
		// Pan mode
		var p = getEventPoint(evt).matrixTransform(stateTf);

		setCTM(g, stateTf.inverse().translate(p.x - stateOrigin.x, p.y - stateOrigin.y));
	} else if(state == 'drag' && enableDrag) {
		// Drag mode
		var p = getEventPoint(evt).matrixTransform(g.getCTM().inverse());

		setCTM(stateTarget, root.createSVGMatrix().translate(p.x - stateOrigin.x, p.y - stateOrigin.y).multiply(g.getCTM().inverse()).multiply(stateTarget.getCTM()));

		stateOrigin = p;
	}
}

/**
 * Handle click event.
 */
function handleMouseDown(evt) {
	if(evt.preventDefault)
		evt.preventDefault();

	evt.returnValue = false;

	var svgDoc = evt.target.ownerDocument;

	var g = getRoot(svgDoc);

	if(
		evt.target.tagName == "svg"
		|| !enableDrag // Pan anyway when drag is disabled and the user clicked on an element
	) {
		// Pan mode
		state = 'pan';

		stateTf = g.getCTM().inverse();

		stateOrigin = getEventPoint(evt).matrixTransform(stateTf);
	} else {
		// Drag mode
		state = 'drag';

		stateTarget = evt.target;

		stateTf = g.getCTM().inverse();

		stateOrigin = getEventPoint(evt).matrixTransform(stateTf);
	}
}

/**
 * Handle mouse button release event.
 */
function handleMouseUp(evt) {
	if(evt.preventDefault)
		evt.preventDefault();

	evt.returnValue = false;

	var svgDoc = evt.target.ownerDocument;

	if(state == 'pan' || state == 'drag') {
		// Quit pan mode
		state = '';
	}
}
]]></script><g id="viewport" transform="scale(0.5,0.5) translate(0,0)"><g id="graph0" class="graph" transform="scale(1 1) rotate(0) translate(4 1301)">
<title>wordcount01</title>
<polygon fill="white" stroke="transparent" points="-4,4 -4,-1301 1016.5,-1301 1016.5,4 -4,4"/>
<g id="clust1" class="cluster">
<title>cluster_L</title>
<polygon fill="none" stroke="black" points="8,-1156 8,-1289 562,-1289 562,-1156 8,-1156"/>
</g>
<!-- File: wordcount01 -->
<g id="node1" class="node">
<title>File: wordcount01</title>
<g id="a_node1"><a xlink:title="wordcount01">
<polygon fill="#f8f8f8" stroke="black" points="553.5,-1281 16.5,-1281 16.5,-1164 553.5,-1164 553.5,-1281"/>
<text text-anchor="start" x="24.5" y="-1264.2" font-family="Times,serif" font-size="16.00">File: wordcount01</text>
<text text-anchor="start" x="24.5" y="-1246.2" font-family="Times,serif" font-size="16.00">Type: inuse_space</text>
<text text-anchor="start" x="24.5" y="-1228.2" font-family="Times,serif" font-size="16.00">Time: Mar 6, 2023 at 9:00pm (UTC)</text>
<text text-anchor="start" x="24.5" y="-1210.2" font-family="Times,serif" font-size="16.00">Showing nodes accounting for 25.24kB, 100% of 25.24kB total</text>
<text text-anchor="start" x="24.5" y="-1173.2" font-family="Times,serif" font-size="16.00">See https://git.io/JfYMW for how to read the graph</text>
</a>
</g>
</g>
<!-- N1 -->
<g id="node1" class="node">
<title>N1</title>
<g id="a_node1"><a xlink:title="runtime.malg (12.62kB)">
<polygon fill="#edd9d5" stroke="#b22100" points="482,-173 250,-173 250,-87 482,-87 482,-173"/>
<text text-anchor="middle" x="366" y="-149.8" font-family="Times,serif" font-size="24.00">runtime</text>
<text text-anchor="middle" x="366" y="-123.8" font-family="Times,serif" font-size="24.00">malg</text>
<text text-anchor="middle" x="366" y="-97.8" font-family="Times,serif" font-size="24.00">12.62kB (49.99%)</text>
</a>
</g>
</g>
<!-- NN1_0 -->
<g id="NN1_0" class="node">
<title>NN1_0</title>
<g id="a_NN1_0"><a xlink:title="12.62kB">
<polygon fill="#f8f8f8" stroke="black" points="393,-36 343,-36 339,-32 339,0 389,0 393,-4 393,-36"/>
<polyline fill="none" stroke="black" points="389,-32 339,-32 "/>
<polyline fill="none" stroke="black" points="389,-32 389,0 "/>
<polyline fill="none" stroke="black" points="389,-32 393,-36 "/>
<text text-anchor="middle" x="366" y="-16.1" font-family="Times,serif" font-size="8.00">416B</text>
</a>
</g>
</g>
<!-- N1&#45;&gt;NN1_0 -->
<g id="edge1" class="edge">
<title>N1&#45;&gt;NN1_0</title>
<g id="a_edge1"><a xlink:title="12.62kB">
<path fill="none" stroke="black" d="M366,-86.79C366,-73.2 366,-58.5 366,-46.28"/>
<polygon fill="black" stroke="black" points="369.5,-46.27 366,-36.27 362.5,-46.27 369.5,-46.27"/>
</a>
</g>
<g id="a_edge1&#45;label"><a xlink:title="12.62kB">
<text text-anchor="middle" x="398" y="-57.8" font-family="Times,serif" font-size="14.00"> 12.62kB</text>
</a>
</g>
</g>
<!-- N2 -->
<g id="node2" class="node">
<title>N2</title>
<g id="a_node2"><a xlink:title="runtime.systemstack (12.62kB)">
<polygon fill="#edd9d5" stroke="#b22100" points="419.5,-939 312.5,-939 312.5,-903 419.5,-903 419.5,-939"/>
<text text-anchor="middle" x="366" y="-928.1" font-family="Times,serif" font-size="8.00">runtime</text>
<text text-anchor="middle" x="366" y="-919.1" font-family="Times,serif" font-size="8.00">systemstack</text>
<text text-anchor="middle" x="366" y="-910.1" font-family="Times,serif" font-size="8.00">0 of 12.62kB (49.99%)</text>
</a>
</g>
</g>
<!-- N17 -->
<g id="node17" class="node">
<title>N17</title>
<g id="a_node17"><a xlink:title="runtime.entersyscallblock_handoff (4.21kB)">
<polygon fill="#ede1d9" stroke="#b25b1d" points="553.5,-833 434.5,-833 434.5,-797 553.5,-797 553.5,-833"/>
<text text-anchor="middle" x="494" y="-822.1" font-family="Times,serif" font-size="8.00">runtime</text>
<text text-anchor="middle" x="494" y="-813.1" font-family="Times,serif" font-size="8.00">entersyscallblock_handoff</text>
<text text-anchor="middle" x="494" y="-804.1" font-family="Times,serif" font-size="8.00">0 of 4.21kB (16.66%)</text>
</a>
</g>
</g>
<!-- N2&#45;&gt;N17 -->
<g id="edge19" class="edge">
<title>N2&#45;&gt;N17</title>
<g id="a_edge19"><a xlink:title="runtime.systemstack &#45;&gt; runtime.entersyscallblock_handoff (4.21kB)">
<path fill="none" stroke="#b25b1d" d="M398.18,-902.87C407.16,-897.57 416.72,-891.43 425,-885 442,-871.8 459.12,-854.7 472.06,-840.83"/>
<polygon fill="#b25b1d" stroke="#b25b1d" points="474.98,-842.82 479.16,-833.09 469.82,-838.09 474.98,-842.82"/>
</a>
</g>
<g id="a_edge19&#45;label"><a xlink:title="runtime.systemstack &#45;&gt; runtime.entersyscallblock_handoff (4.21kB)">
<text text-anchor="middle" x="484.5" y="-866.3" font-family="Times,serif" font-size="14.00"> 4.21kB</text>
</a>
</g>
</g>
<!-- N22 -->
<g id="node22" class="node">
<title>N22</title>
<g id="a_node22"><a xlink:title="runtime.newproc.func1 (8.41kB)">
<polygon fill="#eddcd5" stroke="#b23200" points="416.5,-837 315.5,-837 315.5,-793 416.5,-793 416.5,-837"/>
<text text-anchor="middle" x="366" y="-826.6" font-family="Times,serif" font-size="8.00">runtime</text>
<text text-anchor="middle" x="366" y="-817.6" font-family="Times,serif" font-size="8.00">newproc</text>
<text text-anchor="middle" x="366" y="-808.6" font-family="Times,serif" font-size="8.00">func1</text>
<text text-anchor="middle" x="366" y="-799.6" font-family="Times,serif" font-size="8.00">0 of 8.41kB (33.33%)</text>
</a>
</g>
</g>
<!-- N2&#45;&gt;N22 -->
<g id="edge9" class="edge">
<title>N2&#45;&gt;N22</title>
<g id="a_edge9"><a xlink:title="runtime.systemstack &#45;&gt; runtime.newproc.func1 (8.41kB)">
<path fill="none" stroke="#b23200" stroke-width="2" d="M366,-902.83C366,-887.78 366,-865.53 366,-847.32"/>
<polygon fill="#b23200" stroke="#b23200" stroke-width="2" points="369.5,-847.16 366,-837.16 362.5,-847.16 369.5,-847.16"/>
</a>
</g>
<g id="a_edge9&#45;label"><a xlink:title="runtime.systemstack &#45;&gt; runtime.newproc.func1 (8.41kB)">
<text text-anchor="middle" x="393.5" y="-866.3" font-family="Times,serif" font-size="14.00"> 8.41kB</text>
</a>
</g>
</g>
<!-- N3 -->
<g id="node3" class="node">
<title>N3</title>
<g id="a_node3"><a xlink:title="runtime.allocm (8.73kB)">
<polygon fill="#eddbd5" stroke="#b23000" points="590,-466 398,-466 398,-378 590,-378 590,-466"/>
<text text-anchor="middle" x="494" y="-447.6" font-family="Times,serif" font-size="18.00">runtime</text>
<text text-anchor="middle" x="494" y="-427.6" font-family="Times,serif" font-size="18.00">allocm</text>
<text text-anchor="middle" x="494" y="-407.6" font-family="Times,serif" font-size="18.00">4.52kB (17.91%)</text>
<text text-anchor="middle" x="494" y="-387.6" font-family="Times,serif" font-size="18.00">of 8.73kB (34.57%)</text>
</a>
</g>
</g>
<!-- N3&#45;&gt;N1 -->
<g id="edge16" class="edge">
<title>N3&#45;&gt;N1</title>
<g id="a_edge16"><a xlink:title="runtime.allocm &#45;&gt; runtime.malg (4.21kB)">
<path fill="none" stroke="#b25b1d" d="M540.38,-377.64C544.25,-372.08 547.6,-366.16 550,-360 564.2,-323.53 551.92,-254.66 530,-224 517.12,-205.99 499.6,-191 480.79,-178.7"/>
<polygon fill="#b25b1d" stroke="#b25b1d" points="482.4,-175.58 472.07,-173.24 478.68,-181.51 482.4,-175.58"/>
</a>
</g>
<g id="a_edge16&#45;label"><a xlink:title="runtime.allocm &#45;&gt; runtime.malg (4.21kB)">
<text text-anchor="middle" x="583.5" y="-264.3" font-family="Times,serif" font-size="14.00"> 4.21kB</text>
</a>
</g>
</g>
<!-- NN3_0 -->
<g id="NN3_0" class="node">
<title>NN3_0</title>
<g id="a_NN3_0"><a xlink:title="4.52kB">
<polygon fill="#f8f8f8" stroke="black" points="521,-286 471,-286 467,-282 467,-250 517,-250 521,-254 521,-286"/>
<polyline fill="none" stroke="black" points="517,-282 467,-282 "/>
<polyline fill="none" stroke="black" points="517,-282 517,-250 "/>
<polyline fill="none" stroke="black" points="517,-282 521,-286 "/>
<text text-anchor="middle" x="494" y="-266.1" font-family="Times,serif" font-size="8.00">1kB</text>
</a>
</g>
</g>
<!-- N3&#45;&gt;NN3_0 -->
<g id="edge2" class="edge">
<title>N3&#45;&gt;NN3_0</title>
<g id="a_edge2"><a xlink:title="4.52kB">
<path fill="none" stroke="black" d="M494,-377.85C494,-351.75 494,-319.25 494,-296.59"/>
<polygon fill="black" stroke="black" points="497.5,-296.33 494,-286.33 490.5,-296.33 497.5,-296.33"/>
</a>
</g>
<g id="a_edge2&#45;label"><a xlink:title="4.52kB">
<text text-anchor="middle" x="521.5" y="-341.3" font-family="Times,serif" font-size="14.00"> 4.52kB</text>
</a>
</g>
</g>
<!-- N4 -->
<g id="node4" class="node">
<title>N4</title>
<g id="a_node4"><a xlink:title="github.com/pkg/profile.Start.func11 (4.05kB)">
<polygon fill="#ede2da" stroke="#b25f23" points="859.5,-1266.5 690.5,-1266.5 690.5,-1178.5 859.5,-1178.5 859.5,-1266.5"/>
<text text-anchor="middle" x="775" y="-1248.1" font-family="Times,serif" font-size="18.00">profile</text>
<text text-anchor="middle" x="775" y="-1228.1" font-family="Times,serif" font-size="18.00">Start</text>
<text text-anchor="middle" x="775" y="-1208.1" font-family="Times,serif" font-size="18.00">func11</text>
<text text-anchor="middle" x="775" y="-1188.1" font-family="Times,serif" font-size="18.00">4.05kB (16.03%)</text>
</a>
</g>
</g>
<!-- NN4_0 -->
<g id="NN4_0" class="node">
<title>NN4_0</title>
<g id="a_NN4_0"><a xlink:title="4.05kB">
<polygon fill="#f8f8f8" stroke="black" points="802,-1113 752,-1113 748,-1109 748,-1077 798,-1077 802,-1081 802,-1113"/>
<polyline fill="none" stroke="black" points="798,-1109 748,-1109 "/>
<polyline fill="none" stroke="black" points="798,-1109 798,-1077 "/>
<polyline fill="none" stroke="black" points="798,-1109 802,-1113 "/>
<text text-anchor="middle" x="775" y="-1093.1" font-family="Times,serif" font-size="8.00">96B</text>
</a>
</g>
</g>
<!-- N4&#45;&gt;NN4_0 -->
<g id="edge3" class="edge">
<title>N4&#45;&gt;NN4_0</title>
<g id="a_edge3"><a xlink:title="4.05kB">
<path fill="none" stroke="black" d="M775,-1178.31C775,-1160.11 775,-1139.46 775,-1123.4"/>
<polygon fill="black" stroke="black" points="778.5,-1123.1 775,-1113.1 771.5,-1123.1 778.5,-1123.1"/>
</a>
</g>
<g id="a_edge3&#45;label"><a xlink:title="4.05kB">
<text text-anchor="middle" x="802.5" y="-1134.8" font-family="Times,serif" font-size="14.00"> 4.05kB</text>
</a>
</g>
</g>
<!-- N5 -->
<g id="node5" class="node">
<title>N5</title>
<g id="a_node5"><a xlink:title="runtime.startm (8.73kB)">
<polygon fill="#eddbd5" stroke="#b23000" points="544.5,-640 443.5,-640 443.5,-604 544.5,-604 544.5,-640"/>
<text text-anchor="middle" x="494" y="-629.1" font-family="Times,serif" font-size="8.00">runtime</text>
<text text-anchor="middle" x="494" y="-620.1" font-family="Times,serif" font-size="8.00">startm</text>
<text text-anchor="middle" x="494" y="-611.1" font-family="Times,serif" font-size="8.00">0 of 8.73kB (34.57%)</text>
</a>
</g>
</g>
<!-- N21 -->
<g id="node21" class="node">
<title>N21</title>
<g id="a_node21"><a xlink:title="runtime.newm (8.73kB)">
<polygon fill="#eddbd5" stroke="#b23000" points="544.5,-553 443.5,-553 443.5,-517 544.5,-517 544.5,-553"/>
<text text-anchor="middle" x="494" y="-542.1" font-family="Times,serif" font-size="8.00">runtime</text>
<text text-anchor="middle" x="494" y="-533.1" font-family="Times,serif" font-size="8.00">newm</text>
<text text-anchor="middle" x="494" y="-524.1" font-family="Times,serif" font-size="8.00">0 of 8.73kB (34.57%)</text>
</a>
</g>
</g>
<!-- N5&#45;&gt;N21 -->
<g id="edge6" class="edge">
<title>N5&#45;&gt;N21</title>
<g id="a_edge6"><a xlink:title="runtime.startm &#45;&gt; runtime.newm (8.73kB)">
<path fill="none" stroke="#b23000" stroke-width="2" d="M494,-603.8C494,-592.16 494,-576.55 494,-563.24"/>
<polygon fill="#b23000" stroke="#b23000" stroke-width="2" points="497.5,-563.18 494,-553.18 490.5,-563.18 497.5,-563.18"/>
</a>
</g>
<g id="a_edge6&#45;label"><a xlink:title="runtime.startm &#45;&gt; runtime.newm (8.73kB)">
<text text-anchor="middle" x="521.5" y="-574.8" font-family="Times,serif" font-size="14.00"> 8.73kB</text>
</a>
</g>
</g>
<!-- N6 -->
<g id="node6" class="node">
<title>N6</title>
<g id="a_node6"><a xlink:title="regexp/syntax.(*parser).newRegexp (4.05kB)">
<polygon fill="#ede2da" stroke="#b25f23" points="1012.5,-312 843.5,-312 843.5,-224 1012.5,-224 1012.5,-312"/>
<text text-anchor="middle" x="928" y="-293.6" font-family="Times,serif" font-size="18.00">syntax</text>
<text text-anchor="middle" x="928" y="-273.6" font-family="Times,serif" font-size="18.00">(*parser)</text>
<text text-anchor="middle" x="928" y="-253.6" font-family="Times,serif" font-size="18.00">newRegexp</text>
<text text-anchor="middle" x="928" y="-233.6" font-family="Times,serif" font-size="18.00">4.05kB (16.06%)</text>
</a>
</g>
</g>
<!-- NN6_0 -->
<g id="NN6_0" class="node">
<title>NN6_0</title>
<g id="a_NN6_0"><a xlink:title="4.05kB">
<polygon fill="#f8f8f8" stroke="black" points="955,-148 905,-148 901,-144 901,-112 951,-112 955,-116 955,-148"/>
<polyline fill="none" stroke="black" points="951,-144 901,-144 "/>
<polyline fill="none" stroke="black" points="951,-144 951,-112 "/>
<polyline fill="none" stroke="black" points="951,-144 955,-148 "/>
<text text-anchor="middle" x="928" y="-128.1" font-family="Times,serif" font-size="8.00">112B</text>
</a>
</g>
</g>
<!-- N6&#45;&gt;NN6_0 -->
<g id="edge4" class="edge">
<title>N6&#45;&gt;NN6_0</title>
<g id="a_edge4"><a xlink:title="4.05kB">
<path fill="none" stroke="black" d="M928,-223.97C928,-202.5 928,-177.18 928,-158.39"/>
<polygon fill="black" stroke="black" points="931.5,-158.16 928,-148.16 924.5,-158.16 931.5,-158.16"/>
</a>
</g>
<g id="a_edge4&#45;label"><a xlink:title="4.05kB">
<text text-anchor="middle" x="955.5" y="-194.8" font-family="Times,serif" font-size="14.00"> 4.05kB</text>
</a>
</g>
</g>
<!-- N7 -->
<g id="node7" class="node">
<title>N7</title>
<g id="a_node7"><a xlink:title="runtime.mstart (4.52kB)">
<polygon fill="#ede0d7" stroke="#b25312" points="672.5,-1240.5 571.5,-1240.5 571.5,-1204.5 672.5,-1204.5 672.5,-1240.5"/>
<text text-anchor="middle" x="622" y="-1229.6" font-family="Times,serif" font-size="8.00">runtime</text>
<text text-anchor="middle" x="622" y="-1220.6" font-family="Times,serif" font-size="8.00">mstart</text>
<text text-anchor="middle" x="622" y="-1211.6" font-family="Times,serif" font-size="8.00">0 of 4.52kB (17.91%)</text>
</a>
</g>
</g>
<!-- N19 -->
<g id="node19" class="node">
<title>N19</title>
<g id="a_node19"><a xlink:title="runtime.mstart0 (4.52kB)">
<polygon fill="#ede0d7" stroke="#b25312" points="672.5,-1113 571.5,-1113 571.5,-1077 672.5,-1077 672.5,-1113"/>
<text text-anchor="middle" x="622" y="-1102.1" font-family="Times,serif" font-size="8.00">runtime</text>
<text text-anchor="middle" x="622" y="-1093.1" font-family="Times,serif" font-size="8.00">mstart0</text>
<text text-anchor="middle" x="622" y="-1084.1" font-family="Times,serif" font-size="8.00">0 of 4.52kB (17.91%)</text>
</a>
</g>
</g>
<!-- N7&#45;&gt;N19 -->
<g id="edge10" class="edge">
<title>N7&#45;&gt;N19</title>
<g id="a_edge10"><a xlink:title="runtime.mstart &#45;&gt; runtime.mstart0 (4.52kB)">
<path fill="none" stroke="#b25312" d="M622,-1204.31C622,-1183.49 622,-1148.16 622,-1123.53"/>
<polygon fill="#b25312" stroke="#b25312" points="625.5,-1123.38 622,-1113.38 618.5,-1123.38 625.5,-1123.38"/>
</a>
</g>
<g id="a_edge10&#45;label"><a xlink:title="runtime.mstart &#45;&gt; runtime.mstart0 (4.52kB)">
<text text-anchor="middle" x="649.5" y="-1134.8" font-family="Times,serif" font-size="14.00"> 4.52kB</text>
</a>
</g>
</g>
<!-- N8 -->
<g id="node8" class="node">
<title>N8</title>
<g id="a_node8"><a xlink:title="runtime.main (4.05kB)">
<polygon fill="#ede2da" stroke="#b25f23" points="978.5,-1240.5 877.5,-1240.5 877.5,-1204.5 978.5,-1204.5 978.5,-1240.5"/>
<text text-anchor="middle" x="928" y="-1229.6" font-family="Times,serif" font-size="8.00">runtime</text>
<text text-anchor="middle" x="928" y="-1220.6" font-family="Times,serif" font-size="8.00">main</text>
<text text-anchor="middle" x="928" y="-1211.6" font-family="Times,serif" font-size="8.00">0 of 4.05kB (16.06%)</text>
</a>
</g>
</g>
<!-- N16 -->
<g id="node16" class="node">
<title>N16</title>
<g id="a_node16"><a xlink:title="runtime.doInit (4.05kB)">
<polygon fill="#ede2da" stroke="#b25f23" points="978.5,-1113 877.5,-1113 877.5,-1077 978.5,-1077 978.5,-1113"/>
<text text-anchor="middle" x="928" y="-1102.1" font-family="Times,serif" font-size="8.00">runtime</text>
<text text-anchor="middle" x="928" y="-1093.1" font-family="Times,serif" font-size="8.00">doInit</text>
<text text-anchor="middle" x="928" y="-1084.1" font-family="Times,serif" font-size="8.00">0 of 4.05kB (16.06%)</text>
</a>
</g>
</g>
<!-- N8&#45;&gt;N16 -->
<g id="edge28" class="edge">
<title>N8&#45;&gt;N16</title>
<g id="a_edge28"><a xlink:title="runtime.main &#45;&gt; runtime.doInit (4.05kB)">
<path fill="none" stroke="#b25f23" d="M928,-1204.31C928,-1183.49 928,-1148.16 928,-1123.53"/>
<polygon fill="#b25f23" stroke="#b25f23" points="931.5,-1123.38 928,-1113.38 924.5,-1123.38 931.5,-1123.38"/>
</a>
</g>
<g id="a_edge28&#45;label"><a xlink:title="runtime.main &#45;&gt; runtime.doInit (4.05kB)">
<text text-anchor="middle" x="955.5" y="-1134.8" font-family="Times,serif" font-size="14.00"> 4.05kB</text>
</a>
</g>
</g>
<!-- N9 -->
<g id="node9" class="node">
<title>N9</title>
<g id="a_node9"><a xlink:title="github.com/google/pprof/profile.init (4.05kB)">
<polygon fill="#ede2da" stroke="#b25f23" points="978.5,-1026 877.5,-1026 877.5,-990 978.5,-990 978.5,-1026"/>
<text text-anchor="middle" x="928" y="-1015.1" font-family="Times,serif" font-size="8.00">profile</text>
<text text-anchor="middle" x="928" y="-1006.1" font-family="Times,serif" font-size="8.00">init</text>
<text text-anchor="middle" x="928" y="-997.1" font-family="Times,serif" font-size="8.00">0 of 4.05kB (16.06%)</text>
</a>
</g>
</g>
<!-- N11 -->
<g id="node11" class="node">
<title>N11</title>
<g id="a_node11"><a xlink:title="regexp.MustCompile (4.05kB)">
<polygon fill="#ede2da" stroke="#b25f23" points="978.5,-939 877.5,-939 877.5,-903 978.5,-903 978.5,-939"/>
<text text-anchor="middle" x="928" y="-928.1" font-family="Times,serif" font-size="8.00">regexp</text>
<text text-anchor="middle" x="928" y="-919.1" font-family="Times,serif" font-size="8.00">MustCompile</text>
<text text-anchor="middle" x="928" y="-910.1" font-family="Times,serif" font-size="8.00">0 of 4.05kB (16.06%)</text>
</a>
</g>
</g>
<!-- N9&#45;&gt;N11 -->
<g id="edge20" class="edge">
<title>N9&#45;&gt;N11</title>
<g id="a_edge20"><a xlink:title="github.com/google/pprof/profile.init &#45;&gt; regexp.MustCompile (4.05kB)">
<path fill="none" stroke="#b25f23" d="M928,-989.8C928,-978.16 928,-962.55 928,-949.24"/>
<polygon fill="#b25f23" stroke="#b25f23" points="931.5,-949.18 928,-939.18 924.5,-949.18 931.5,-949.18"/>
</a>
</g>
<g id="a_edge20&#45;label"><a xlink:title="github.com/google/pprof/profile.init &#45;&gt; regexp.MustCompile (4.05kB)">
<text text-anchor="middle" x="955.5" y="-960.8" font-family="Times,serif" font-size="14.00"> 4.05kB</text>
</a>
</g>
</g>
<!-- N10 -->
<g id="node10" class="node">
<title>N10</title>
<g id="a_node10"><a xlink:title="regexp.Compile (4.05kB)">
<polygon fill="#ede2da" stroke="#b25f23" points="978.5,-833 877.5,-833 877.5,-797 978.5,-797 978.5,-833"/>
<text text-anchor="middle" x="928" y="-822.1" font-family="Times,serif" font-size="8.00">regexp</text>
<text text-anchor="middle" x="928" y="-813.1" font-family="Times,serif" font-size="8.00">Compile</text>
<text text-anchor="middle" x="928" y="-804.1" font-family="Times,serif" font-size="8.00">0 of 4.05kB (16.06%)</text>
</a>
</g>
</g>
<!-- N12 -->
<g id="node12" class="node">
<title>N12</title>
<g id="a_node12"><a xlink:title="regexp.compile (4.05kB)">
<polygon fill="#ede2da" stroke="#b25f23" points="978.5,-742 877.5,-742 877.5,-706 978.5,-706 978.5,-742"/>
<text text-anchor="middle" x="928" y="-731.1" font-family="Times,serif" font-size="8.00">regexp</text>
<text text-anchor="middle" x="928" y="-722.1" font-family="Times,serif" font-size="8.00">compile</text>
<text text-anchor="middle" x="928" y="-713.1" font-family="Times,serif" font-size="8.00">0 of 4.05kB (16.06%)</text>
</a>
</g>
</g>
<!-- N10&#45;&gt;N12 -->
<g id="edge21" class="edge">
<title>N10&#45;&gt;N12</title>
<g id="a_edge21"><a xlink:title="regexp.Compile &#45;&gt; regexp.compile (4.05kB)">
<path fill="none" stroke="#b25f23" d="M928,-796.84C928,-784.28 928,-766.98 928,-752.5"/>
<polygon fill="#b25f23" stroke="#b25f23" points="931.5,-752.11 928,-742.11 924.5,-752.11 931.5,-752.11"/>
</a>
</g>
<g id="a_edge21&#45;label"><a xlink:title="regexp.Compile &#45;&gt; regexp.compile (4.05kB)">
<text text-anchor="middle" x="955.5" y="-763.8" font-family="Times,serif" font-size="14.00"> 4.05kB</text>
</a>
</g>
</g>
<!-- N11&#45;&gt;N10 -->
<g id="edge22" class="edge">
<title>N11&#45;&gt;N10</title>
<g id="a_edge22"><a xlink:title="regexp.MustCompile &#45;&gt; regexp.Compile (4.05kB)">
<path fill="none" stroke="#b25f23" d="M928,-902.83C928,-886.64 928,-862.13 928,-843.27"/>
<polygon fill="#b25f23" stroke="#b25f23" points="931.5,-843.2 928,-833.2 924.5,-843.2 931.5,-843.2"/>
</a>
</g>
<g id="a_edge22&#45;label"><a xlink:title="regexp.MustCompile &#45;&gt; regexp.Compile (4.05kB)">
<text text-anchor="middle" x="955.5" y="-873.8" font-family="Times,serif" font-size="14.00"> 4.05kB</text>
<text text-anchor="middle" x="955.5" y="-858.8" font-family="Times,serif" font-size="14.00"> (inline)</text>
</a>
</g>
</g>
<!-- N14 -->
<g id="node14" class="node">
<title>N14</title>
<g id="a_node14"><a xlink:title="regexp/syntax.Parse (4.05kB)">
<polygon fill="#ede2da" stroke="#b25f23" points="978.5,-640 877.5,-640 877.5,-604 978.5,-604 978.5,-640"/>
<text text-anchor="middle" x="928" y="-629.1" font-family="Times,serif" font-size="8.00">syntax</text>
<text text-anchor="middle" x="928" y="-620.1" font-family="Times,serif" font-size="8.00">Parse</text>
<text text-anchor="middle" x="928" y="-611.1" font-family="Times,serif" font-size="8.00">0 of 4.05kB (16.06%)</text>
</a>
</g>
</g>
<!-- N12&#45;&gt;N14 -->
<g id="edge23" class="edge">
<title>N12&#45;&gt;N14</title>
<g id="a_edge23"><a xlink:title="regexp.compile &#45;&gt; regexp/syntax.Parse (4.05kB)">
<path fill="none" stroke="#b25f23" d="M928,-705.58C928,-690.38 928,-668.07 928,-650.46"/>
<polygon fill="#b25f23" stroke="#b25f23" points="931.5,-650.22 928,-640.22 924.5,-650.22 931.5,-650.22"/>
</a>
</g>
<g id="a_edge23&#45;label"><a xlink:title="regexp.compile &#45;&gt; regexp/syntax.Parse (4.05kB)">
<text text-anchor="middle" x="955.5" y="-676.8" font-family="Times,serif" font-size="14.00"> 4.05kB</text>
<text text-anchor="middle" x="955.5" y="-661.8" font-family="Times,serif" font-size="14.00"> (inline)</text>
</a>
</g>
</g>
<!-- N13 -->
<g id="node13" class="node">
<title>N13</title>
<g id="a_node13"><a xlink:title="regexp/syntax.(*parser).parseClass (4.05kB)">
<polygon fill="#ede2da" stroke="#b25f23" points="978.5,-444 877.5,-444 877.5,-400 978.5,-400 978.5,-444"/>
<text text-anchor="middle" x="928" y="-433.6" font-family="Times,serif" font-size="8.00">syntax</text>
<text text-anchor="middle" x="928" y="-424.6" font-family="Times,serif" font-size="8.00">(*parser)</text>
<text text-anchor="middle" x="928" y="-415.6" font-family="Times,serif" font-size="8.00">parseClass</text>
<text text-anchor="middle" x="928" y="-406.6" font-family="Times,serif" font-size="8.00">0 of 4.05kB (16.06%)</text>
</a>
</g>
</g>
<!-- N13&#45;&gt;N6 -->
<g id="edge24" class="edge">
<title>N13&#45;&gt;N6</title>
<g id="a_edge24"><a xlink:title="regexp/syntax.(*parser).parseClass &#45;&gt; regexp/syntax.(*parser).newRegexp (4.05kB)">
<path fill="none" stroke="#b25f23" d="M928,-399.87C928,-379.83 928,-348.9 928,-322.14"/>
<polygon fill="#b25f23" stroke="#b25f23" points="931.5,-322.12 928,-312.12 924.5,-322.12 931.5,-322.12"/>
</a>
</g>
<g id="a_edge24&#45;label"><a xlink:title="regexp/syntax.(*parser).parseClass &#45;&gt; regexp/syntax.(*parser).newRegexp (4.05kB)">
<text text-anchor="middle" x="955.5" y="-348.8" font-family="Times,serif" font-size="14.00"> 4.05kB</text>
<text text-anchor="middle" x="955.5" y="-333.8" font-family="Times,serif" font-size="14.00"> (inline)</text>
</a>
</g>
</g>
<!-- N15 -->
<g id="node15" class="node">
<title>N15</title>
<g id="a_node15"><a xlink:title="regexp/syntax.parse (4.05kB)">
<polygon fill="#ede2da" stroke="#b25f23" points="978.5,-553 877.5,-553 877.5,-517 978.5,-517 978.5,-553"/>
<text text-anchor="middle" x="928" y="-542.1" font-family="Times,serif" font-size="8.00">syntax</text>
<text text-anchor="middle" x="928" y="-533.1" font-family="Times,serif" font-size="8.00">parse</text>
<text text-anchor="middle" x="928" y="-524.1" font-family="Times,serif" font-size="8.00">0 of 4.05kB (16.06%)</text>
</a>
</g>
</g>
<!-- N14&#45;&gt;N15 -->
<g id="edge25" class="edge">
<title>N14&#45;&gt;N15</title>
<g id="a_edge25"><a xlink:title="regexp/syntax.Parse &#45;&gt; regexp/syntax.parse (4.05kB)">
<path fill="none" stroke="#b25f23" d="M928,-603.8C928,-592.16 928,-576.55 928,-563.24"/>
<polygon fill="#b25f23" stroke="#b25f23" points="931.5,-563.18 928,-553.18 924.5,-563.18 931.5,-563.18"/>
</a>
</g>
<g id="a_edge25&#45;label"><a xlink:title="regexp/syntax.Parse &#45;&gt; regexp/syntax.parse (4.05kB)">
<text text-anchor="middle" x="955.5" y="-574.8" font-family="Times,serif" font-size="14.00"> 4.05kB</text>
</a>
</g>
</g>
<!-- N15&#45;&gt;N13 -->
<g id="edge26" class="edge">
<title>N15&#45;&gt;N13</title>
<g id="a_edge26"><a xlink:title="regexp/syntax.parse &#45;&gt; regexp/syntax.(*parser).parseClass (4.05kB)">
<path fill="none" stroke="#b25f23" d="M928,-516.66C928,-499.94 928,-474.26 928,-454.02"/>
<polygon fill="#b25f23" stroke="#b25f23" points="931.5,-454.01 928,-444.01 924.5,-454.01 931.5,-454.01"/>
</a>
</g>
<g id="a_edge26&#45;label"><a xlink:title="regexp/syntax.parse &#45;&gt; regexp/syntax.(*parser).parseClass (4.05kB)">
<text text-anchor="middle" x="955.5" y="-487.8" font-family="Times,serif" font-size="14.00"> 4.05kB</text>
</a>
</g>
</g>
<!-- N16&#45;&gt;N9 -->
<g id="edge27" class="edge">
<title>N16&#45;&gt;N9</title>
<g id="a_edge27"><a xlink:title="runtime.doInit &#45;&gt; github.com/google/pprof/profile.init (4.05kB)">
<path fill="none" stroke="#b25f23" d="M928,-1076.8C928,-1065.16 928,-1049.55 928,-1036.24"/>
<polygon fill="#b25f23" stroke="#b25f23" points="931.5,-1036.18 928,-1026.18 924.5,-1036.18 931.5,-1036.18"/>
</a>
</g>
<g id="a_edge27&#45;label"><a xlink:title="runtime.doInit &#45;&gt; github.com/google/pprof/profile.init (4.05kB)">
<text text-anchor="middle" x="955.5" y="-1047.8" font-family="Times,serif" font-size="14.00"> 4.05kB</text>
</a>
</g>
</g>
<!-- N18 -->
<g id="node18" class="node">
<title>N18</title>
<g id="a_node18"><a xlink:title="runtime.handoffp (4.21kB)">
<polygon fill="#ede1d9" stroke="#b25b1d" points="544.5,-742 443.5,-742 443.5,-706 544.5,-706 544.5,-742"/>
<text text-anchor="middle" x="494" y="-731.1" font-family="Times,serif" font-size="8.00">runtime</text>
<text text-anchor="middle" x="494" y="-722.1" font-family="Times,serif" font-size="8.00">handoffp</text>
<text text-anchor="middle" x="494" y="-713.1" font-family="Times,serif" font-size="8.00">0 of 4.21kB (16.66%)</text>
</a>
</g>
</g>
<!-- N17&#45;&gt;N18 -->
<g id="edge17" class="edge">
<title>N17&#45;&gt;N18</title>
<g id="a_edge17"><a xlink:title="runtime.entersyscallblock_handoff &#45;&gt; runtime.handoffp (4.21kB)">
<path fill="none" stroke="#b25b1d" d="M494,-796.84C494,-784.28 494,-766.98 494,-752.5"/>
<polygon fill="#b25b1d" stroke="#b25b1d" points="497.5,-752.11 494,-742.11 490.5,-752.11 497.5,-752.11"/>
</a>
</g>
<g id="a_edge17&#45;label"><a xlink:title="runtime.entersyscallblock_handoff &#45;&gt; runtime.handoffp (4.21kB)">
<text text-anchor="middle" x="521.5" y="-763.8" font-family="Times,serif" font-size="14.00"> 4.21kB</text>
</a>
</g>
</g>
<!-- N18&#45;&gt;N5 -->
<g id="edge18" class="edge">
<title>N18&#45;&gt;N5</title>
<g id="a_edge18"><a xlink:title="runtime.handoffp &#45;&gt; runtime.startm (4.21kB)">
<path fill="none" stroke="#b25b1d" d="M494,-705.58C494,-690.38 494,-668.07 494,-650.46"/>
<polygon fill="#b25b1d" stroke="#b25b1d" points="497.5,-650.22 494,-640.22 490.5,-650.22 497.5,-650.22"/>
</a>
</g>
<g id="a_edge18&#45;label"><a xlink:title="runtime.handoffp &#45;&gt; runtime.startm (4.21kB)">
<text text-anchor="middle" x="521.5" y="-669.3" font-family="Times,serif" font-size="14.00"> 4.21kB</text>
</a>
</g>
</g>
<!-- N20 -->
<g id="node20" class="node">
<title>N20</title>
<g id="a_node20"><a xlink:title="runtime.mstart1 (4.52kB)">
<polygon fill="#ede0d7" stroke="#b25312" points="672.5,-1026 571.5,-1026 571.5,-990 672.5,-990 672.5,-1026"/>
<text text-anchor="middle" x="622" y="-1015.1" font-family="Times,serif" font-size="8.00">runtime</text>
<text text-anchor="middle" x="622" y="-1006.1" font-family="Times,serif" font-size="8.00">mstart1</text>
<text text-anchor="middle" x="622" y="-997.1" font-family="Times,serif" font-size="8.00">0 of 4.52kB (17.91%)</text>
</a>
</g>
</g>
<!-- N19&#45;&gt;N20 -->
<g id="edge11" class="edge">
<title>N19&#45;&gt;N20</title>
<g id="a_edge11"><a xlink:title="runtime.mstart0 &#45;&gt; runtime.mstart1 (4.52kB)">
<path fill="none" stroke="#b25312" d="M622,-1076.8C622,-1065.16 622,-1049.55 622,-1036.24"/>
<polygon fill="#b25312" stroke="#b25312" points="625.5,-1036.18 622,-1026.18 618.5,-1036.18 625.5,-1036.18"/>
</a>
</g>
<g id="a_edge11&#45;label"><a xlink:title="runtime.mstart0 &#45;&gt; runtime.mstart1 (4.52kB)">
<text text-anchor="middle" x="649.5" y="-1047.8" font-family="Times,serif" font-size="14.00"> 4.52kB</text>
</a>
</g>
</g>
<!-- N25 -->
<g id="node25" class="node">
<title>N25</title>
<g id="a_node25"><a xlink:title="runtime.schedule (4.52kB)">
<polygon fill="#ede0d7" stroke="#b25312" points="672.5,-939 571.5,-939 571.5,-903 672.5,-903 672.5,-939"/>
<text text-anchor="middle" x="622" y="-928.1" font-family="Times,serif" font-size="8.00">runtime</text>
<text text-anchor="middle" x="622" y="-919.1" font-family="Times,serif" font-size="8.00">schedule</text>
<text text-anchor="middle" x="622" y="-910.1" font-family="Times,serif" font-size="8.00">0 of 4.52kB (17.91%)</text>
</a>
</g>
</g>
<!-- N20&#45;&gt;N25 -->
<g id="edge12" class="edge">
<title>N20&#45;&gt;N25</title>
<g id="a_edge12"><a xlink:title="runtime.mstart1 &#45;&gt; runtime.schedule (4.52kB)">
<path fill="none" stroke="#b25312" d="M622,-989.8C622,-978.16 622,-962.55 622,-949.24"/>
<polygon fill="#b25312" stroke="#b25312" points="625.5,-949.18 622,-939.18 618.5,-949.18 625.5,-949.18"/>
</a>
</g>
<g id="a_edge12&#45;label"><a xlink:title="runtime.mstart1 &#45;&gt; runtime.schedule (4.52kB)">
<text text-anchor="middle" x="649.5" y="-960.8" font-family="Times,serif" font-size="14.00"> 4.52kB</text>
</a>
</g>
</g>
<!-- N21&#45;&gt;N3 -->
<g id="edge5" class="edge">
<title>N21&#45;&gt;N3</title>
<g id="a_edge5"><a xlink:title="runtime.newm &#45;&gt; runtime.allocm (8.73kB)">
<path fill="none" stroke="#b23000" stroke-width="2" d="M494,-516.66C494,-505.66 494,-490.79 494,-476.13"/>
<polygon fill="#b23000" stroke="#b23000" stroke-width="2" points="497.5,-476.07 494,-466.07 490.5,-476.07 497.5,-476.07"/>
</a>
</g>
<g id="a_edge5&#45;label"><a xlink:title="runtime.newm &#45;&gt; runtime.allocm (8.73kB)">
<text text-anchor="middle" x="521.5" y="-487.8" font-family="Times,serif" font-size="14.00"> 8.73kB</text>
</a>
</g>
</g>
<!-- N23 -->
<g id="node23" class="node">
<title>N23</title>
<g id="a_node23"><a xlink:title="runtime.newproc1 (8.41kB)">
<polygon fill="#eddcd5" stroke="#b23200" points="416.5,-742 315.5,-742 315.5,-706 416.5,-706 416.5,-742"/>
<text text-anchor="middle" x="366" y="-731.1" font-family="Times,serif" font-size="8.00">runtime</text>
<text text-anchor="middle" x="366" y="-722.1" font-family="Times,serif" font-size="8.00">newproc1</text>
<text text-anchor="middle" x="366" y="-713.1" font-family="Times,serif" font-size="8.00">0 of 8.41kB (33.33%)</text>
</a>
</g>
</g>
<!-- N22&#45;&gt;N23 -->
<g id="edge7" class="edge">
<title>N22&#45;&gt;N23</title>
<g id="a_edge7"><a xlink:title="runtime.newproc.func1 &#45;&gt; runtime.newproc1 (8.41kB)">
<path fill="none" stroke="#b23200" stroke-width="2" d="M366,-792.91C366,-780.78 366,-765.41 366,-752.36"/>
<polygon fill="#b23200" stroke="#b23200" stroke-width="2" points="369.5,-752.07 366,-742.07 362.5,-752.07 369.5,-752.07"/>
</a>
</g>
<g id="a_edge7&#45;label"><a xlink:title="runtime.newproc.func1 &#45;&gt; runtime.newproc1 (8.41kB)">
<text text-anchor="middle" x="393.5" y="-763.8" font-family="Times,serif" font-size="14.00"> 8.41kB</text>
</a>
</g>
</g>
<!-- N23&#45;&gt;N1 -->
<g id="edge8" class="edge">
<title>N23&#45;&gt;N1</title>
<g id="a_edge8"><a xlink:title="runtime.newproc1 &#45;&gt; runtime.malg (8.41kB)">
<path fill="none" stroke="#b23200" stroke-width="2" d="M366,-705.66C366,-685.71 366,-651.99 366,-623 366,-623 366,-623 366,-267 366,-239.4 366,-208.65 366,-183.38"/>
<polygon fill="#b23200" stroke="#b23200" stroke-width="2" points="369.5,-183.27 366,-173.27 362.5,-183.27 369.5,-183.27"/>
</a>
</g>
<g id="a_edge8&#45;label"><a xlink:title="runtime.newproc1 &#45;&gt; runtime.malg (8.41kB)">
<text text-anchor="middle" x="393.5" y="-487.8" font-family="Times,serif" font-size="14.00"> 8.41kB</text>
</a>
</g>
</g>
<!-- N24 -->
<g id="node24" class="node">
<title>N24</title>
<g id="a_node24"><a xlink:title="runtime.resetspinning (4.52kB)">
<polygon fill="#ede0d7" stroke="#b25312" points="672.5,-833 571.5,-833 571.5,-797 672.5,-797 672.5,-833"/>
<text text-anchor="middle" x="622" y="-822.1" font-family="Times,serif" font-size="8.00">runtime</text>
<text text-anchor="middle" x="622" y="-813.1" font-family="Times,serif" font-size="8.00">resetspinning</text>
<text text-anchor="middle" x="622" y="-804.1" font-family="Times,serif" font-size="8.00">0 of 4.52kB (17.91%)</text>
</a>
</g>
</g>
<!-- N26 -->
<g id="node26" class="node">
<title>N26</title>
<g id="a_node26"><a xlink:title="runtime.wakep (4.52kB)">
<polygon fill="#ede0d7" stroke="#b25312" points="666.5,-742 565.5,-742 565.5,-706 666.5,-706 666.5,-742"/>
<text text-anchor="middle" x="616" y="-731.1" font-family="Times,serif" font-size="8.00">runtime</text>
<text text-anchor="middle" x="616" y="-722.1" font-family="Times,serif" font-size="8.00">wakep</text>
<text text-anchor="middle" x="616" y="-713.1" font-family="Times,serif" font-size="8.00">0 of 4.52kB (17.91%)</text>
</a>
</g>
</g>
<!-- N24&#45;&gt;N26 -->
<g id="edge13" class="edge">
<title>N24&#45;&gt;N26</title>
<g id="a_edge13"><a xlink:title="runtime.resetspinning &#45;&gt; runtime.wakep (4.52kB)">
<path fill="none" stroke="#b25312" d="M620.84,-796.84C620,-784.28 618.83,-766.98 617.85,-752.5"/>
<polygon fill="#b25312" stroke="#b25312" points="621.32,-751.85 617.15,-742.11 614.33,-752.32 621.32,-751.85"/>
</a>
</g>
<g id="a_edge13&#45;label"><a xlink:title="runtime.resetspinning &#45;&gt; runtime.wakep (4.52kB)">
<text text-anchor="middle" x="647.5" y="-763.8" font-family="Times,serif" font-size="14.00"> 4.52kB</text>
</a>
</g>
</g>
<!-- N25&#45;&gt;N24 -->
<g id="edge14" class="edge">
<title>N25&#45;&gt;N24</title>
<g id="a_edge14"><a xlink:title="runtime.schedule &#45;&gt; runtime.resetspinning (4.52kB)">
<path fill="none" stroke="#b25312" d="M622,-902.83C622,-886.64 622,-862.13 622,-843.27"/>
<polygon fill="#b25312" stroke="#b25312" points="625.5,-843.2 622,-833.2 618.5,-843.2 625.5,-843.2"/>
</a>
</g>
<g id="a_edge14&#45;label"><a xlink:title="runtime.schedule &#45;&gt; runtime.resetspinning (4.52kB)">
<text text-anchor="middle" x="649.5" y="-866.3" font-family="Times,serif" font-size="14.00"> 4.52kB</text>
</a>
</g>
</g>
<!-- N26&#45;&gt;N5 -->
<g id="edge15" class="edge">
<title>N26&#45;&gt;N5</title>
<g id="a_edge15"><a xlink:title="runtime.wakep &#45;&gt; runtime.startm (4.52kB)">
<path fill="none" stroke="#b25312" d="M601.57,-705.75C589.46,-691.88 571.26,-672.41 553,-658 547.47,-653.64 541.35,-649.42 535.21,-645.52"/>
<polygon fill="#b25312" stroke="#b25312" points="536.61,-642.28 526.25,-640.05 532.96,-648.25 536.61,-642.28"/>
</a>
</g>
<g id="a_edge15&#45;label"><a xlink:title="runtime.wakep &#45;&gt; runtime.startm (4.52kB)">
<text text-anchor="middle" x="611.5" y="-669.3" font-family="Times,serif" font-size="14.00"> 4.52kB</text>
</a>
</g>
</g>
</g>
</g></svg>
